<svg width="23" height="22" viewBox="0 0 23 22" fill="none" xmlns="http://www.w3.org/2000/svg">
<path d="M18.8606 6.99269L6.48612 1.42421C5.57986 1.01637 4.82487 0.676611 4.21831 0.4665C3.6305 0.262883 2.92805 0.0829335 2.23203 0.276601C1.31769 0.531014 0.576076 1.20034 0.229548 2.08388C-0.0342419 2.75647 0.072973 3.47363 0.215447 4.07918C0.362464 4.70403 0.623283 5.48978 0.936362 6.43298L1.95654 9.50662H10.8966C11.5639 9.50662 12.1049 10.0476 12.1049 10.7149C12.1049 11.3823 11.5639 11.9233 10.8966 11.9233H1.9831L0.960671 14.9774C0.644168 15.9228 0.380589 16.71 0.231563 17.336C0.0872305 17.9423 -0.0222503 18.6609 0.240765 19.335C0.5861 20.2202 1.32779 20.8913 2.24298 21.1468C2.94002 21.3413 3.64405 21.1608 4.23294 20.9567C4.841 20.7461 5.59814 20.4053 6.50731 19.9962L18.8606 14.4372C19.747 14.0383 20.4873 13.7052 21.0371 13.3958C21.5722 13.0947 22.1624 12.6939 22.4789 12.0538C22.8961 11.21 22.8961 10.2199 22.4789 9.37608C22.1624 8.73603 21.5722 8.33523 21.0371 8.03408C20.4872 7.72464 19.747 7.39155 18.8606 6.99269Z" fill="black"/>
</svg>
