<svg width="22" height="17" viewBox="0 0 22 17" fill="none" xmlns="http://www.w3.org/2000/svg">
<path d="M19.0423 5.54019L16.9426 3.43312C15.4297 1.91494 14.8367 1.09824 14.0175 1.38696C12.9959 1.74697 13.3322 4.01852 13.3322 4.7854C11.744 4.7854 10.0928 4.64425 8.52726 4.93836C3.35917 5.90928 1.74313 10.1067 1.74313 14.6844C3.20586 13.6482 4.66715 12.5444 6.42518 12.0642C8.6197 11.4648 11.0706 11.7508 13.3322 11.7508C13.3322 12.5176 12.9959 14.7893 14.0175 15.1492C14.9458 15.4763 15.4297 14.6213 16.9426 13.1031L19.0423 10.996C20.3302 9.70356 20.9742 9.05734 20.9742 8.2681C20.9742 7.47887 20.3302 6.83264 19.0423 5.54019Z" stroke="#141B34" stroke-width="1.60259" stroke-linecap="round" stroke-linejoin="round"/>
</svg>
